<?xml version="1.0" encoding="UTF-8" standalone="no"?>
<!-- Created with Inkscape (http://www.inkscape.org/) -->

<svg
   xmlns:dc="http://purl.org/dc/elements/1.1/"
   xmlns:cc="http://creativecommons.org/ns#"
   xmlns:rdf="http://www.w3.org/1999/02/22-rdf-syntax-ns#"
   xmlns:svg="http://www.w3.org/2000/svg"
   xmlns="http://www.w3.org/2000/svg"
   xmlns:xlink="http://www.w3.org/1999/xlink"
   xmlns:sodipodi="http://sodipodi.sourceforge.net/DTD/sodipodi-0.dtd"
   xmlns:inkscape="http://www.inkscape.org/namespaces/inkscape"
   width="210mm"
   height="297mm"
   id="svg2"
   version="1.1"
   inkscape:version="0.47 r22583"
   sodipodi:docname="icono_tarjeta.svg">
  <defs
     id="defs4">
    <inkscape:perspective
       sodipodi:type="inkscape:persp3d"
       inkscape:vp_x="0 : 526.18109 : 1"
       inkscape:vp_y="0 : 1000 : 0"
       inkscape:vp_z="744.09448 : 526.18109 : 1"
       inkscape:persp3d-origin="372.04724 : 350.78739 : 1"
       id="perspective10" />
    <inkscape:perspective
       id="perspective2902"
       inkscape:persp3d-origin="0.5 : 0.33333333 : 1"
       inkscape:vp_z="1 : 0.5 : 1"
       inkscape:vp_y="0 : 1000 : 0"
       inkscape:vp_x="0 : 0.5 : 1"
       sodipodi:type="inkscape:persp3d" />
  </defs>
  <sodipodi:namedview
     id="base"
     pagecolor="#ffffff"
     bordercolor="#666666"
     borderopacity="1.0"
     inkscape:pageopacity="0.0"
     inkscape:pageshadow="2"
     inkscape:zoom="0.98994949"
     inkscape:cx="526.90151"
     inkscape:cy="210.53785"
     inkscape:document-units="px"
     inkscape:current-layer="layer1"
     showgrid="false"
     inkscape:window-width="1440"
     inkscape:window-height="854"
     inkscape:window-x="0"
     inkscape:window-y="0"
     inkscape:window-maximized="1" />
  <metadata
     id="metadata7">
    <rdf:RDF>
      <cc:Work
         rdf:about="">
        <dc:format>image/svg+xml</dc:format>
        <dc:type
           rdf:resource="http://purl.org/dc/dcmitype/StillImage" />
        <dc:title></dc:title>
      </cc:Work>
    </rdf:RDF>
  </metadata>
  <g
     inkscape:label="Capa 1"
     inkscape:groupmode="layer"
     id="layer1">
    <image
       y="193.43359"
       x="721.42859"
       id="image2904"
       height="375"
       width="590"
       xlink:href="file:///home/humitos/fotos/de%20todo%20un%20poco%20(aisladas)/thumbs/P3090954.JPG"
       style="fill:#0a0869;fill-opacity:1" />
    <path
       style="fill:none;stroke:#000000;stroke-width:1px;stroke-linecap:butt;stroke-linejoin:miter;stroke-opacity:1"
       d="m 125.71429,228.07647 c 0,0 4.83552,-21.75731 27.73459,-22.10696 27.40283,-0.41842 520.83683,-1.46447 520.83683,-1.46447 0,0 25.84927,2.67989 25.67839,25.71428 -0.1733,23.36223 -0.67838,301.78572 -0.67838,301.78572 0,0 -1.847,32.08158 -32.14286,31.78571 -29.29303,-0.28608 -509.7549,0.0508 -509.7549,0.0508 0,0 -28.81653,-0.76504 -32.38796,-30.76504 -3.57143,-30 0.71429,-304.28572 0.71429,-305 l 0,-4e-5 z"
       id="path2908"
       sodipodi:nodetypes="cscscscscc" />
    <path
       style="fill:none;stroke:#000000;stroke-width:1px;stroke-linecap:butt;stroke-linejoin:miter;stroke-opacity:1"
       d="m 125.53571,257.36218 574.63761,-1.42857"
       id="path2910"
       sodipodi:nodetypes="cc" />
    <path
       style="fill:none;stroke:#000000;stroke-width:1px;stroke-linecap:butt;stroke-linejoin:miter;stroke-opacity:1"
       d="m 124.28571,340.21932 575.97427,0.41843"
       id="path2912"
       sodipodi:nodetypes="cc" />
    <path
       style="fill:none;stroke:#000000;stroke-width:1px;stroke-linecap:butt;stroke-linejoin:miter;stroke-opacity:1"
       d="m 146.42857,543.79075 -0.71428,-70 518.153,-0.34663 c -1.01015,39.39595 0.29588,70.41842 0.29588,70.41842 l -517.7346,-0.0718 z"
       id="path2914"
       sodipodi:nodetypes="ccccc" />
    <path
       style="fill:none;stroke:#000000;stroke-width:1px;stroke-linecap:butt;stroke-linejoin:miter;stroke-opacity:1"
       d="M 186.25,442.36219 138.57143,403.79075 185,368.07647 l 0,15 26.42857,0 -0.71428,43.57143 -24.10715,0.17857 -0.35714,15.53572 z"
       id="path2916"
       sodipodi:nodetypes="cccccccc" />
    <path
       style="fill:none;stroke:#000000;stroke-width:1px;stroke-linecap:butt;stroke-linejoin:miter;stroke-opacity:1"
       d="m 135.71429,401.29075 0,-13.21428 50,-39.28572 -0.17857,14.28571 -49.82143,38.21429 z"
       id="path2918"
       sodipodi:nodetypes="ccccc" />
    <path
       style="fill:none;stroke:#000000;stroke-width:1px;stroke-linecap:butt;stroke-linejoin:miter;stroke-opacity:1"
       d="m 211.42857,365.21932 -22.14285,0.17858 -1e-5,13.39285 21.78572,-0.17857 0.35714,-13.39286 z"
       id="path2920"
       sodipodi:nodetypes="ccccc" />
    <path
       style="fill:#0d0c6d;fill-opacity:1;stroke:none"
       d="m 116.28207,1008.7999 c -7.17139,-2.757 -14.64154,-9.68992 -17.433246,-16.17944 -4.13786,-9.61871 -4.22767,-12.60618 -4.13404,-137.51262 l 0.049,-65.40738 286.954376,0 286.95438,0 -0.36838,97.73226 c -0.33852,89.80626 -0.51048,98.09741 -2.12045,102.23482 -4.10048,10.53776 -10.28662,17.15566 -18.76468,20.07426 -2.5891,0.8913 -67.69095,1.1691 -264.65997,1.1294 -258.66621,-0.052 -261.27769,-0.072 -266.47701,-2.0713 z m 518.09611,-15.80624 c 0.17169,-0.41668 0.17167,-16.78202 -4e-5,-36.36742 l -0.31221,-35.60981 -259.64957,0.25447 -259.64958,0.25447 0.14749,35.27604 c 0.0811,19.40182 0.38024,35.65265 0.66473,36.11296 0.64437,1.04261 518.36968,1.12174 518.79918,0.0793 l 0,0 z m -476.98492,-108.81188 0,-7.54408 11.86929,-0.2846 11.8693,-0.28459 0.27186,-22.4759 0.27186,-22.47589 -13.11045,0 -13.11046,0 -0.29339,-7.96218 -0.29339,-7.96219 -23.94462,18.31625 c -13.16955,10.07393 -23.93515,18.54353 -23.92356,18.82132 0.0401,0.96277 47.8742,39.24537 49.13087,39.32048 0.90417,0.0541 1.26269,-2.06653 1.26269,-7.46862 z m -25.42157,-53.54401 c 12.96395,-9.88923 23.7813,-18.52892 24.03856,-19.19933 0.25726,-0.6704 0.33275,-4.49814 0.16777,-8.50608 l -0.29999,-7.28717 -25.49824,20.00861 -25.49825,20.0086 -0.008,7.98525 c -0.008,7.50616 0.098,7.89481 1.75966,6.47788 0.97227,-0.82905 12.37464,-9.59854 25.33859,-19.48776 l -2e-5,0 z m 49.66523,-10.12765 0,-7.57615 -11.61675,0 -11.61676,0 0,7.57615 0,7.57614 11.61676,0 11.61675,0 0,-7.57614 z"
       id="path3735"
       inkscape:export-filename="/home/humitos/busstopped/busstopped/path3737.jpg.png"
       inkscape:export-xdpi="5.0438781"
       inkscape:export-ydpi="5.0438781" />
    <path
       style="fill:#0d0c6d;fill-opacity:1;stroke:none"
       d="m 96.079164,689.76089 c 0.71408,-17.3955 1.80333,-20.50336 9.680226,-27.61967 8.06138,-7.28297 -14.306546,-6.68346 277.83462,-7.44669 l 263.31845,-0.68793 6.01077,2.7492 c 7.25406,3.31786 11.19536,6.8387 13.69211,12.23143 1.55859,3.36639 1.87444,6.61109 1.89293,19.44544 l 0.0222,15.40483 -115.915,3.3e-4 c -63.75326,1.8e-4 -192.69724,0.30307 -286.54219,0.67309 l -170.627186,0.67275 0.63309,-15.42278 z"
       id="path3737"
       inkscape:export-xdpi="5.0438781"
       inkscape:export-ydpi="5.0438781" />
  </g>
</svg>
